<svg width="899" height="158" viewBox="0 0 899 158" fill="none" xmlns="http://www.w3.org/2000/svg">
<path d="M124.9 16L161.2 78.8734L124.9 141.747H52.3L16 78.8734L52.3 16H124.9ZM117.279 29.2H59.921L31.242 78.8734L59.921 128.547H117.279L145.958 78.8734L117.279 29.2ZM66.3843 53.5947L77.8156 46.9947L110.816 104.152L99.3844 110.752L66.3843 53.5947Z" fill="white"/>
<path d="M227.275 116.874V40.074H279.025V53.4615H243.512V71.7615H276.362V85.149H243.512V103.487H279.175V116.874H227.275Z" fill="white"/>
<path d="M322.609 59.274V71.274H287.059V59.274H322.609ZM295.197 116.874V55.1115C295.197 50.9365 296.009 47.474 297.634 44.724C299.284 41.974 301.534 39.9115 304.384 38.5365C307.234 37.1615 310.472 36.474 314.097 36.474C316.547 36.474 318.784 36.6615 320.809 37.0365C322.859 37.4115 324.384 37.749 325.384 38.049L322.534 50.049C321.909 49.849 321.134 49.6615 320.209 49.4865C319.309 49.3115 318.384 49.224 317.434 49.224C315.084 49.224 313.447 49.774 312.522 50.874C311.597 51.949 311.134 53.4615 311.134 55.4115V116.874H295.197Z" fill="white"/>
<path d="M363.344 59.274V71.274H327.794V59.274H363.344ZM335.931 116.874V55.1115C335.931 50.9365 336.744 47.474 338.369 44.724C340.019 41.974 342.269 39.9115 345.119 38.5365C347.969 37.1615 351.206 36.474 354.831 36.474C357.281 36.474 359.519 36.6615 361.544 37.0365C363.594 37.4115 365.119 37.749 366.119 38.049L363.269 50.049C362.644 49.849 361.869 49.6615 360.944 49.4865C360.044 49.3115 359.119 49.224 358.169 49.224C355.819 49.224 354.181 49.774 353.256 50.874C352.331 51.949 351.869 53.4615 351.869 55.4115V116.874H335.931Z" fill="white"/>
<path d="M397.291 117.999C391.366 117.999 386.266 116.799 381.991 114.399C377.741 111.974 374.466 108.549 372.166 104.124C369.866 99.674 368.716 94.4115 368.716 88.3365C368.716 82.4115 369.866 77.2115 372.166 72.7365C374.466 68.2615 377.703 64.774 381.878 62.274C386.078 59.774 391.003 58.524 396.653 58.524C400.453 58.524 403.991 59.1365 407.266 60.3615C410.566 61.5615 413.441 63.374 415.891 65.799C418.366 68.224 420.291 71.274 421.666 74.949C423.041 78.599 423.728 82.874 423.728 87.774V92.1615H375.091V82.2615H408.691C408.691 79.9615 408.191 77.924 407.191 76.149C406.191 74.374 404.803 72.9865 403.028 71.9865C401.278 70.9615 399.241 70.449 396.916 70.449C394.491 70.449 392.341 71.0115 390.466 72.1365C388.616 73.2365 387.166 74.724 386.116 76.599C385.066 78.449 384.528 80.5115 384.503 82.7865V92.199C384.503 95.049 385.028 97.5115 386.078 99.5865C387.153 101.662 388.666 103.262 390.616 104.387C392.566 105.512 394.878 106.074 397.553 106.074C399.328 106.074 400.953 105.824 402.428 105.324C403.903 104.824 405.166 104.074 406.216 103.074C407.266 102.074 408.066 100.849 408.616 99.399L423.391 100.374C422.641 103.924 421.103 107.024 418.778 109.674C416.478 112.299 413.503 114.349 409.853 115.824C406.228 117.274 402.041 117.999 397.291 117.999Z" fill="white"/>
<path d="M460.178 117.999C454.278 117.999 449.203 116.749 444.953 114.249C440.728 111.724 437.478 108.224 435.203 103.749C432.953 99.274 431.828 94.124 431.828 88.299C431.828 82.399 432.966 77.224 435.241 72.774C437.541 68.299 440.803 64.8115 445.028 62.3115C449.253 59.7865 454.278 58.524 460.103 58.524C465.128 58.524 469.528 59.4365 473.303 61.2615C477.078 63.0865 480.066 65.649 482.266 68.949C484.466 72.249 485.678 76.124 485.903 80.574H470.828C470.403 77.699 469.278 75.3865 467.453 73.6365C465.653 71.8615 463.291 70.974 460.366 70.974C457.891 70.974 455.728 71.649 453.878 72.999C452.053 74.324 450.628 76.2615 449.603 78.8115C448.578 81.3615 448.066 84.449 448.066 88.074C448.066 91.749 448.566 94.874 449.566 97.449C450.591 100.024 452.028 101.987 453.878 103.337C455.728 104.687 457.891 105.362 460.366 105.362C462.191 105.362 463.828 104.987 465.278 104.237C466.753 103.487 467.966 102.399 468.916 100.974C469.891 99.524 470.528 97.7865 470.828 95.7615H485.903C485.653 100.162 484.453 104.037 482.303 107.387C480.178 110.712 477.241 113.312 473.491 115.187C469.741 117.062 465.303 117.999 460.178 117.999Z" fill="white"/>
<path d="M526.769 59.274V71.274H492.081V59.274H526.769ZM499.956 45.474H515.931V99.174C515.931 100.649 516.156 101.799 516.606 102.624C517.056 103.424 517.681 103.987 518.481 104.312C519.306 104.637 520.256 104.799 521.331 104.799C522.081 104.799 522.831 104.737 523.581 104.612C524.331 104.462 524.906 104.349 525.306 104.274L527.819 116.162C527.019 116.412 525.894 116.699 524.444 117.024C522.994 117.374 521.231 117.587 519.156 117.662C515.306 117.812 511.931 117.299 509.031 116.124C506.156 114.949 503.919 113.124 502.319 110.649C500.719 108.174 499.931 105.049 499.956 101.274V45.474Z" fill="white"/>
<path d="M538.712 116.874V40.074H590.462V53.4615H554.95V71.7615H587.8V85.149H554.95V103.487H590.612V116.874H538.712Z" fill="white"/>
<path d="M619.047 83.574V116.874H603.072V59.274H618.297V69.4365H618.972C620.247 66.0865 622.384 63.4365 625.384 61.4865C628.384 59.5115 632.022 58.524 636.297 58.524C640.297 58.524 643.784 59.399 646.759 61.149C649.734 62.899 652.047 65.399 653.697 68.649C655.347 71.874 656.172 75.724 656.172 80.199V116.874H640.197V83.049C640.222 79.524 639.322 76.774 637.497 74.799C635.672 72.799 633.159 71.799 629.959 71.799C627.809 71.799 625.909 72.2615 624.259 73.1865C622.634 74.1115 621.359 75.4615 620.434 77.2365C619.534 78.9865 619.072 81.099 619.047 83.574Z" fill="white"/>
<path d="M694.712 139.674C689.537 139.674 685.1 138.962 681.4 137.537C677.725 136.137 674.8 134.224 672.625 131.799C670.45 129.374 669.037 126.649 668.387 123.624L683.162 121.637C683.612 122.787 684.325 123.862 685.3 124.862C686.275 125.862 687.562 126.662 689.162 127.262C690.787 127.887 692.762 128.199 695.087 128.199C698.562 128.199 701.425 127.349 703.675 125.649C705.95 123.974 707.087 121.162 707.087 117.212V106.674H706.412C705.712 108.274 704.662 109.787 703.262 111.212C701.862 112.637 700.062 113.799 697.862 114.699C695.662 115.599 693.037 116.049 689.987 116.049C685.662 116.049 681.725 115.049 678.175 113.049C674.65 111.024 671.837 107.937 669.737 103.787C667.662 99.6115 666.625 94.3365 666.625 87.9615C666.625 81.4365 667.687 75.9865 669.812 71.6115C671.937 67.2365 674.762 63.9615 678.287 61.7865C681.837 59.6115 685.725 58.524 689.95 58.524C693.175 58.524 695.875 59.074 698.05 60.174C700.225 61.249 701.975 62.599 703.3 64.224C704.65 65.824 705.688 67.399 706.412 68.949H707.012V59.274H722.875V117.437C722.875 122.337 721.675 126.437 719.275 129.737C716.875 133.037 713.55 135.512 709.3 137.162C705.075 138.837 700.212 139.674 694.712 139.674ZM695.05 104.049C697.625 104.049 699.8 103.412 701.575 102.137C703.375 100.837 704.75 98.9865 705.7 96.5865C706.675 94.1615 707.162 91.2615 707.162 87.8865C707.162 84.5115 706.687 81.5865 705.737 79.1115C704.787 76.6115 703.412 74.674 701.612 73.299C699.812 71.924 697.625 71.2365 695.05 71.2365C692.425 71.2365 690.212 71.949 688.412 73.374C686.612 74.774 685.25 76.724 684.325 79.224C683.4 81.724 682.937 84.6115 682.937 87.8865C682.937 91.2115 683.4 94.0865 684.325 96.5115C685.275 98.9115 686.637 100.774 688.412 102.099C690.212 103.399 692.425 104.049 695.05 104.049Z" fill="white"/>
<path d="M735.587 116.874V59.274H751.562V116.874H735.587ZM743.612 51.849C741.237 51.849 739.2 51.0615 737.5 49.4865C735.825 47.8865 734.987 45.974 734.987 43.749C734.987 41.549 735.825 39.6615 737.5 38.0865C739.2 36.4865 741.237 35.6865 743.612 35.6865C745.987 35.6865 748.012 36.4865 749.687 38.0865C751.387 39.6615 752.237 41.549 752.237 43.749C752.237 45.974 751.387 47.8865 749.687 49.4865C748.012 51.0615 745.987 51.849 743.612 51.849Z" fill="white"/>
<path d="M780.334 83.574V116.874H764.359V59.274H779.584V69.4365H780.259C781.534 66.0865 783.672 63.4365 786.672 61.4865C789.672 59.5115 793.309 58.524 797.584 58.524C801.584 58.524 805.072 59.399 808.047 61.149C811.022 62.899 813.334 65.399 814.984 68.649C816.634 71.874 817.459 75.724 817.459 80.199V116.874H801.484V83.049C801.509 79.524 800.609 76.774 798.784 74.799C796.959 72.799 794.447 71.799 791.247 71.799C789.097 71.799 787.197 72.2615 785.547 73.1865C783.922 74.1115 782.647 75.4615 781.722 77.2365C780.822 78.9865 780.359 81.099 780.334 83.574Z" fill="white"/>
<path d="M856.3 117.999C850.375 117.999 845.275 116.799 841 114.399C836.75 111.974 833.475 108.549 831.175 104.124C828.875 99.674 827.725 94.4115 827.725 88.3365C827.725 82.4115 828.875 77.2115 831.175 72.7365C833.475 68.2615 836.712 64.774 840.887 62.274C845.087 59.774 850.012 58.524 855.662 58.524C859.462 58.524 863 59.1365 866.275 60.3615C869.575 61.5615 872.45 63.374 874.9 65.799C877.375 68.224 879.3 71.274 880.675 74.949C882.05 78.599 882.737 82.874 882.737 87.774V92.1615H834.1V82.2615H867.7C867.7 79.9615 867.2 77.924 866.2 76.149C865.2 74.374 863.812 72.9865 862.037 71.9865C860.287 70.9615 858.25 70.449 855.925 70.449C853.5 70.449 851.35 71.0115 849.475 72.1365C847.625 73.2365 846.175 74.724 845.125 76.599C844.075 78.449 843.537 80.5115 843.512 82.7865V92.199C843.512 95.049 844.037 97.5115 845.087 99.5865C846.162 101.662 847.675 103.262 849.625 104.387C851.575 105.512 853.887 106.074 856.562 106.074C858.337 106.074 859.962 105.824 861.437 105.324C862.912 104.824 864.175 104.074 865.225 103.074C866.275 102.074 867.075 100.849 867.625 99.399L882.4 100.374C881.65 103.924 880.112 107.024 877.787 109.674C875.487 112.299 872.512 114.349 868.862 115.824C865.237 117.274 861.05 117.999 856.3 117.999Z" fill="white"/>
</svg>
